<?xml version="1.0" encoding="utf-8"?>
<!-- Generator: Adobe Illustrator 19.2.1, SVG Export Plug-In . SVG Version: 6.00 Build 0)  -->
<svg version="1.1" id="Layer_1" xmlns="http://www.w3.org/2000/svg" xmlns:xlink="http://www.w3.org/1999/xlink" x="0px" y="0px"
	 viewBox="0 0 1400 980" style="enable-background:new 0 0 1400 980;" xml:space="preserve">
<style type="text/css">
	.st0{fill:none;}
	.st1{fill:#FF695D;}
	.st2{fill:#A3EED8;}
	.st3{fill:#882900;}
	.st4{fill:#F9B54A;}
	.st5{fill:url(#New_Pattern_2);}
</style>
<pattern  width="718.8" height="744.2" patternUnits="userSpaceOnUse" id="New_Pattern_2" viewBox="66.3 -818.2 718.8 744.2" style="overflow:visible;">
	<g>
		<rect x="66.3" y="-818.2" class="st0" width="718.8" height="744.2"/>
		<g>
			<polygon id="XMLID_1539_" class="st1" points="718.8,-37.1 751.8,-74.5 785,-37.1 			"/>
			<polygon id="XMLID_1538_" class="st2" points="818.3,-74.5 785.3,-37.1 752.1,-74.5 			"/>
			<polygon id="XMLID_1537_" class="st2" points="687,-74.5 653.9,-37.1 620.8,-74.5 			"/>
			<polygon id="XMLID_1536_" class="st2" points="653.6,-37 686.6,-74.5 719.8,-37 			"/>
			<polygon id="XMLID_1535_" class="st3" points="751.8,-74.5 718.8,-37.1 685.6,-74.5 			"/>
		</g>
		<g>
			<polygon id="XMLID_1534_" class="st1" points="66.5,-37.1 99.5,-74.5 132.7,-37.1 			"/>
			<polygon id="XMLID_1533_" class="st2" points="130.8,-37.1 163.8,-74.5 197,-37.1 			"/>
			<polygon id="XMLID_1532_" class="st2" points="229.5,-74.5 196.4,-37.1 163.2,-74.5 			"/>
			<polygon id="XMLID_1531_" class="st2" points="99.5,-74.5 66.4,-37.1 33.2,-74.5 			"/>
			<polygon id="XMLID_1530_" class="st3" points="99.1,-74.5 131.8,-37.1 164.6,-74.5 			"/>
		</g>
		<g>
			<polygon class="st1" points="850.6,-260.3 784.7,-334.7 719.1,-260.4 718.8,-260.4 784.8,-186 850.4,-260.3 			"/>
			<polygon class="st3" points="831.2,-260.4 784.7,-312.7 738.5,-260.4 738.3,-260.4 784.8,-208 831,-260.4 			"/>
			<polygon class="st1" points="818.7,-260.4 784.7,-298.7 750.9,-260.4 750.7,-260.4 784.8,-222 818.6,-260.4 			"/>
			<polygon id="XMLID_1529_" class="st4" points="783.6,-334.5 816.6,-372 849.8,-334.5 			"/>
			<polygon id="XMLID_1528_" class="st2" points="784.3,-334.6 751.3,-297.2 718.1,-334.6 			"/>
			<polygon id="XMLID_1527_" class="st2" points="751.6,-297.5 718.6,-260.1 685.4,-297.5 			"/>
			<polygon id="XMLID_1526_" class="st2" points="850.1,-334.6 817,-297.2 783.8,-334.6 			"/>
			<polygon id="XMLID_1525_" class="st3" points="817.1,-372 784,-334.5 750.8,-372 			"/>
			<polygon id="XMLID_1524_" class="st2" points="817.1,-148.5 784,-111 750.8,-148.5 			"/>
			<polygon id="XMLID_1523_" class="st4" points="785.2,-185.9 752.2,-148.5 719,-185.9 			"/>
			<polygon id="XMLID_1522_" class="st4" points="751.7,-223 718.7,-185.5 685.5,-223 			"/>
			<polygon id="XMLID_1521_" class="st4" points="718.7,-260.3 685.7,-222.9 652.5,-260.3 			"/>
			<polygon id="XMLID_1520_" class="st4" points="718.3,-334.6 685.3,-297.2 652.1,-334.6 			"/>
			<polygon id="XMLID_1519_" class="st4" points="685.6,-297.5 652.6,-260.1 619.4,-297.5 			"/>
			<polygon id="XMLID_1518_" class="st4" points="751.1,-372 718,-334.5 684.9,-372 			"/>
			<polygon id="XMLID_1517_" class="st3" points="784.8,-409.4 751.8,-372 718.6,-409.4 			"/>
			<polygon id="XMLID_1516_" class="st3" points="850.6,-409.4 817.6,-372 784.4,-409.4 			"/>
			<polygon id="XMLID_1515_" class="st3" points="784.5,-111.1 817.5,-148.6 850.7,-111.1 			"/>
			<polygon id="XMLID_1514_" class="st3" points="718.5,-111.1 751.5,-148.6 784.7,-111.1 			"/>
			<polygon id="XMLID_1513_" class="st4" points="851.2,-185.8 818.2,-148.3 785,-185.8 			"/>
			<polygon id="XMLID_1512_" class="st1" points="718.8,-409.1 751.8,-446.6 785,-409.1 			"/>
			<polygon id="XMLID_1511_" class="st2" points="784.6,-185.8 817.7,-223.2 850.9,-185.8 			"/>
			<polygon id="XMLID_1510_" class="st2" points="685.4,-222.9 718.4,-260.3 751.6,-222.9 			"/>
			<polygon id="XMLID_1509_" class="st2" points="718.9,-185.8 751.9,-223.2 785.1,-185.8 			"/>
			<polygon id="XMLID_1508_" class="st3" points="751.9,-148.5 784.9,-185.9 818.1,-148.5 			"/>
			<polygon id="XMLID_1507_" class="st2" points="751.9,-372 784.9,-409.4 818.1,-372 			"/>
			<polygon id="XMLID_1506_" class="st2" points="818.3,-446.6 785.3,-409.1 752.1,-446.6 			"/>
			<polygon id="XMLID_1505_" class="st4" points="619.4,-222.9 652.4,-260.3 685.6,-222.9 			"/>
			<polygon id="XMLID_1504_" class="st4" points="652.9,-185.8 685.9,-223.2 719.1,-185.8 			"/>
			<polygon id="XMLID_1503_" class="st4" points="685.9,-148.5 718.9,-185.9 752.1,-148.5 			"/>
			<polygon id="XMLID_1502_" class="st4" points="684.9,-297.4 718,-334.8 751.2,-297.4 			"/>
			<polygon id="XMLID_1501_" class="st4" points="717.7,-334.5 750.7,-371.9 783.9,-334.5 			"/>
			<polygon id="XMLID_1500_" class="st2" points="687,-446.6 653.9,-409.1 620.8,-446.6 			"/>
			<polygon id="XMLID_1499_" class="st2" points="653.6,-409.1 686.6,-446.5 719.8,-409.1 			"/>
			<polygon id="XMLID_1498_" class="st4" points="652.2,-260.1 685.2,-297.5 718.4,-260.1 			"/>
			<polygon id="XMLID_1497_" class="st3" points="751.8,-446.6 718.8,-409.1 685.6,-446.6 			"/>
			<polygon id="XMLID_1496_" class="st1" points="653.1,-111.2 686.1,-148.6 719.3,-111.2 			"/>
			<polygon id="XMLID_1495_" class="st1" points="586.8,-185.7 619.8,-223.2 653,-185.7 			"/>
			<polygon id="XMLID_1494_" class="st1" points="620.3,-148.3 653.3,-185.8 686.5,-148.3 			"/>
			<polygon id="XMLID_1493_" class="st1" points="719.5,-185.8 686.4,-148.4 653.2,-185.8 			"/>
			<polygon id="XMLID_1492_" class="st1" points="752.1,-148.8 719,-111.4 685.8,-148.8 			"/>
			<polygon id="XMLID_1491_" class="st1" points="685.8,-223.3 652.7,-185.9 619.5,-223.3 			"/>
			<polygon id="XMLID_1490_" class="st2" points="654.3,-260.5 621.2,-223.1 588,-260.5 			"/>
			<polygon id="XMLID_1489_" class="st2" points="587.7,-260.4 620.8,-297.8 653.9,-260.4 			"/>
			<polygon id="XMLID_1488_" class="st1" points="555.6,-223.1 588.6,-260.5 621.8,-223.1 			"/>
			<polygon id="XMLID_1487_" class="st3" points="555.6,-297.1 588.6,-334.5 621.8,-297.1 			"/>
			<polygon id="XMLID_1486_" class="st1" points="620.7,-297.7 587.7,-260.3 554.5,-297.7 			"/>
			<polygon id="XMLID_1485_" class="st3" points="622,-223.7 589,-186.3 555.8,-223.7 			"/>
			<polygon id="XMLID_1484_" class="st3" points="687.4,-148.6 654.4,-111.2 621.2,-148.6 			"/>
			<polygon id="XMLID_1483_" class="st3" points="654.6,-186.1 621.6,-148.7 588.4,-186.1 			"/>
			<polygon id="XMLID_1482_" class="st3" points="687.9,-372 654.6,-409.4 621.2,-372 			"/>
			<polygon id="XMLID_1481_" class="st3" points="654.1,-334.5 620.8,-371.9 587.3,-334.5 			"/>
			<polygon id="XMLID_1480_" class="st1" points="685.4,-297.3 652.5,-334.8 619.5,-297.3 			"/>
			<polygon id="XMLID_1479_" class="st1" points="751.5,-371.9 718.9,-409.3 686.1,-371.9 			"/>
			<polygon id="XMLID_1478_" class="st1" points="718.8,-334.5 686.2,-371.9 653.5,-334.5 			"/>
			<polygon id="XMLID_1477_" class="st1" points="621,-372 653.6,-334.5 686.3,-372 			"/>
			<polygon id="XMLID_1476_" class="st1" points="586.8,-335 619.7,-297.5 652.8,-335 			"/>
			<polygon id="XMLID_1475_" class="st1" points="653.7,-409.5 686.4,-372 719.2,-409.5 			"/>
			<polygon id="XMLID_1474_" class="st1" points="850.3,-110.9 817.3,-73.5 784.1,-110.9 			"/>
			<polygon id="XMLID_1473_" class="st1" points="783.7,-110.9 750.7,-73.5 717.5,-110.9 			"/>
			<polygon id="XMLID_1472_" class="st2" points="719.4,-110.9 686.4,-73.5 653.2,-110.9 			"/>
			<polygon id="XMLID_1471_" class="st2" points="620.8,-73.5 653.8,-110.9 687,-73.5 			"/>
			<polygon id="XMLID_1470_" class="st2" points="750.7,-73.5 783.8,-110.9 817,-73.5 			"/>
			<polygon id="XMLID_1464_" class="st3" points="751.1,-73.5 718.4,-110.9 685.6,-73.5 			"/>
		</g>
		<g>
			<polygon class="st1" points="491.2,-74.3 425.2,-148.7 359.7,-74.4 359.4,-74.4 425.4,0 491,-74.3 			"/>
			<polygon class="st3" points="471.7,-74.3 425.3,-126.7 379.1,-74.4 378.9,-74.4 425.4,-22 471.6,-74.3 			"/>
			<polygon class="st1" points="459.3,-74.3 425.3,-112.7 391.4,-74.4 391.3,-74.4 425.4,-36 459.2,-74.3 			"/>
			<polygon id="XMLID_1463_" class="st4" points="424.2,-148.5 457.2,-185.9 490.4,-148.5 			"/>
			<polygon id="XMLID_1462_" class="st4" points="457.7,-111.4 490.7,-148.8 523.9,-111.4 			"/>
			<polygon id="XMLID_1460_" class="st4" points="490.7,-74.1 523.7,-111.5 556.9,-74.1 			"/>
			<polygon id="XMLID_1459_" class="st2" points="424.9,-148.6 391.9,-111.2 358.7,-148.6 			"/>
			<polygon id="XMLID_1458_" class="st2" points="392.2,-111.5 359.1,-74.1 325.9,-111.5 			"/>
			<polygon id="XMLID_1457_" class="st2" points="524.2,-111.5 491.1,-74.1 457.9,-111.5 			"/>
			<polygon id="XMLID_1456_" class="st2" points="490.6,-148.6 457.6,-111.2 424.4,-148.6 			"/>
			<polygon id="XMLID_1455_" class="st3" points="457.7,-185.9 424.6,-148.5 391.4,-185.9 			"/>
			<polygon id="XMLID_1454_" class="st4" points="359.3,-74.3 326.2,-36.9 293,-74.3 			"/>
			<polygon id="XMLID_1453_" class="st4" points="358.9,-148.6 325.9,-111.2 292.7,-148.6 			"/>
			<polygon id="XMLID_1452_" class="st4" points="326.2,-111.5 293.1,-74.1 259.9,-111.5 			"/>
			<polygon id="XMLID_1451_" class="st4" points="391.7,-185.9 358.6,-148.5 325.4,-185.9 			"/>
			<polygon id="XMLID_1450_" class="st3" points="425.4,-223.4 392.4,-186 359.2,-223.4 			"/>
			<polygon id="XMLID_1449_" class="st3" points="491.2,-223.4 458.2,-186 425,-223.4 			"/>
			<polygon id="XMLID_1448_" class="st4" points="557.3,-74.2 524.2,-36.7 491,-74.2 			"/>
			<polygon id="XMLID_1447_" class="st4" points="589.4,-111.5 556.3,-74.1 523.1,-111.5 			"/>
			<polygon id="XMLID_1446_" class="st4" points="555.9,-148.6 522.8,-111.2 489.6,-148.6 			"/>
			<polygon id="XMLID_1445_" class="st1" points="556.6,-223.3 523.5,-185.8 490.3,-223.3 			"/>
			<polygon id="XMLID_1444_" class="st1" points="359.3,-223.1 392.4,-260.5 425.6,-223.1 			"/>
			<polygon id="XMLID_1443_" class="st1" points="425.9,-223.1 459,-260.5 492.2,-223.1 			"/>
			<polygon id="XMLID_1442_" class="st1" points="622,-148.7 588.9,-111.3 555.7,-148.7 			"/>
			<polygon id="XMLID_1441_" class="st1" points="589.4,-186.1 556.3,-148.7 523.1,-186.1 			"/>
			<polygon id="XMLID_1440_" class="st4" points="522.9,-185.9 489.8,-148.5 456.6,-185.9 			"/>
			<polygon id="XMLID_1439_" class="st2" points="490.2,-223.1 523.2,-260.5 556.4,-223.1 			"/>
			<polygon id="XMLID_1438_" class="st2" points="588.9,-260.5 555.8,-223.1 522.6,-260.5 			"/>
			<polygon id="XMLID_1437_" class="st2" points="458,-36.8 491,-74.3 524.2,-36.8 			"/>
			<polygon id="XMLID_1436_" class="st2" points="326,-36.8 359,-74.3 392.2,-36.8 			"/>
			<polygon id="XMLID_1435_" class="st2" points="392.5,-185.9 425.5,-223.3 458.7,-185.9 			"/>
			<polygon id="XMLID_1434_" class="st2" points="458.9,-260.5 425.8,-223.1 392.6,-260.5 			"/>
			<polygon id="XMLID_1433_" class="st4" points="524.2,-36.8 557.3,-74.3 590.5,-36.8 			"/>
			<polygon id="XMLID_1432_" class="st2" points="556.7,-74.1 589.7,-111.5 622.9,-74.1 			"/>
			<polygon id="XMLID_1431_" class="st2" points="623.3,-74.2 590.2,-36.7 557,-74.2 			"/>
			<polygon id="XMLID_1430_" class="st1" points="655.4,-111.5 622.3,-74.1 589.1,-111.5 			"/>
			<polygon id="XMLID_1429_" class="st1" points="590.2,-36.8 623.3,-74.3 656.5,-36.8 			"/>
			<polygon id="XMLID_1428_" class="st3" points="588.9,-110.8 622,-148.3 655.2,-110.8 			"/>
			<polygon id="XMLID_1427_" class="st4" points="260,-36.8 293,-74.3 326.2,-36.8 			"/>
			<polygon id="XMLID_1426_" class="st4" points="325.5,-111.4 358.5,-148.8 391.7,-111.4 			"/>
			<polygon id="XMLID_1425_" class="st4" points="358.2,-148.5 391.3,-185.9 424.5,-148.5 			"/>
			<polygon id="XMLID_1424_" class="st2" points="327.6,-260.5 294.5,-223.1 261.3,-260.5 			"/>
			<polygon id="XMLID_1423_" class="st2" points="294.1,-223.1 327.2,-260.5 360.4,-223.1 			"/>
			<polygon id="XMLID_1422_" class="st4" points="292.8,-74 325.8,-111.5 359,-74 			"/>
			<polygon id="XMLID_1421_" class="st1" points="490.2,-148.6 523.2,-186.1 556.4,-148.6 			"/>
			<polygon id="XMLID_1420_" class="st1" points="457.6,-185.6 490.6,-223.1 523.8,-185.6 			"/>
			<polygon id="XMLID_1419_" class="st3" points="392.4,-260.5 359.4,-223.1 326.2,-260.5 			"/>
			<polygon id="XMLID_1418_" class="st1" points="523,-111.1 556,-148.6 589.2,-111.1 			"/>
			<polygon id="XMLID_1417_" class="st3" points="523.6,-186 556.6,-223.4 589.8,-186 			"/>
			<polygon id="XMLID_1416_" class="st3" points="556.4,-148.5 589.4,-185.9 622.6,-148.5 			"/>
			<polygon id="XMLID_1415_" class="st2" points="294.9,-74.5 261.8,-37 228.6,-74.5 			"/>
			<polygon id="XMLID_1414_" class="st2" points="228.3,-74.4 261.3,-111.8 294.5,-74.4 			"/>
			<polygon id="XMLID_1413_" class="st1" points="196.2,-37 229.2,-74.5 262.4,-37 			"/>
			<polygon id="XMLID_1412_" class="st3" points="196.2,-111 229.2,-148.5 262.4,-111 			"/>
			<polygon id="XMLID_1411_" class="st1" points="261.3,-111.7 228.3,-74.2 195.1,-111.7 			"/>
			<polygon id="XMLID_1410_" class="st3" points="328.5,-186 295.2,-223.4 261.8,-186 			"/>
			<polygon id="XMLID_1409_" class="st3" points="294.6,-148.5 261.4,-185.9 227.9,-148.5 			"/>
			<polygon id="XMLID_1408_" class="st1" points="326,-111.3 293.1,-148.7 260,-111.3 			"/>
			<polygon id="XMLID_1407_" class="st1" points="392.1,-185.9 359.5,-223.3 326.7,-185.9 			"/>
			<polygon id="XMLID_1406_" class="st3" points="458.6,-260.5 491.2,-223.1 524,-260.5 			"/>
			<polygon id="XMLID_1405_" class="st1" points="359.4,-148.5 326.8,-185.9 294.1,-148.5 			"/>
			<polygon id="XMLID_1404_" class="st1" points="261.6,-185.9 294.1,-148.5 326.9,-185.9 			"/>
			<polygon id="XMLID_1403_" class="st1" points="227.4,-148.9 260.3,-111.5 293.4,-148.9 			"/>
			<polygon id="XMLID_1402_" class="st1" points="294.3,-223.4 326.9,-186 359.7,-223.4 			"/>
		</g>
		<g>
			<polygon class="st1" points="131.8,-260.3 65.8,-334.7 0.2,-260.4 0,-260.4 66,-186 131.6,-260.3 			"/>
			<polygon class="st3" points="112.3,-260.4 65.8,-312.7 19.7,-260.4 19.5,-260.4 66,-208 112.1,-260.4 			"/>
			<polygon class="st1" points="99.9,-260.4 65.9,-298.7 32,-260.4 31.9,-260.4 65.9,-222 99.8,-260.4 			"/>
			<polygon id="XMLID_1401_" class="st4" points="64.8,-334.5 97.8,-372 131,-334.5 			"/>
			<polygon id="XMLID_1400_" class="st4" points="98.3,-297.4 131.3,-334.9 164.5,-297.4 			"/>
			<polygon id="XMLID_1399_" class="st4" points="131.3,-260.1 164.3,-297.5 197.5,-260.1 			"/>
			<polygon id="XMLID_1398_" class="st2" points="164.7,-297.5 131.7,-260.1 98.5,-297.5 			"/>
			<polygon id="XMLID_1397_" class="st2" points="131.2,-334.6 98.2,-297.2 65,-334.6 			"/>
			<polygon id="XMLID_1396_" class="st3" points="98.2,-372 65.2,-334.5 32,-372 			"/>
			<polygon id="XMLID_1395_" class="st2" points="98.2,-148.5 65.2,-111 32,-148.5 			"/>
			<polygon id="XMLID_1394_" class="st4" points="66.4,-185.9 33.3,-148.5 0.1,-185.9 			"/>
			<polygon id="XMLID_1393_" class="st3" points="131.8,-409.4 98.7,-372 65.5,-409.4 			"/>
			<polygon id="XMLID_1392_" class="st3" points="65.6,-111.1 98.7,-148.6 131.9,-111.1 			"/>
			<polygon id="XMLID_1391_" class="st4" points="165.1,-222.9 132.1,-185.4 98.9,-222.9 			"/>
			<polygon id="XMLID_1390_" class="st4" points="132.3,-185.8 99.3,-148.3 66.1,-185.8 			"/>
			<polygon id="XMLID_1389_" class="st4" points="197.8,-260.2 164.8,-222.8 131.6,-260.2 			"/>
			<polygon id="XMLID_1388_" class="st4" points="230,-297.5 196.9,-260.1 163.7,-297.5 			"/>
			<polygon id="XMLID_1387_" class="st4" points="196.4,-334.6 163.4,-297.2 130.2,-334.6 			"/>
			<polygon id="XMLID_1386_" class="st1" points="197.1,-409.3 164.1,-371.9 130.9,-409.3 			"/>
			<polygon id="XMLID_1385_" class="st1" points="66.5,-409.1 99.5,-446.6 132.7,-409.1 			"/>
			<polygon id="XMLID_1384_" class="st1" points="262.5,-334.7 229.5,-297.3 196.3,-334.7 			"/>
			<polygon id="XMLID_1383_" class="st1" points="229.9,-372.1 196.9,-334.7 163.7,-372.1 			"/>
			<polygon id="XMLID_1382_" class="st4" points="163.5,-372 130.4,-334.5 97.2,-372 			"/>
			<polygon id="XMLID_1381_" class="st2" points="130.8,-409.1 163.8,-446.6 197,-409.1 			"/>
			<polygon id="XMLID_1380_" class="st2" points="229.5,-446.6 196.4,-409.1 163.2,-446.6 			"/>
			<polygon id="XMLID_1379_" class="st2" points="65.8,-185.8 98.8,-223.2 132,-185.8 			"/>
			<polygon id="XMLID_1378_" class="st2" points="98.5,-222.9 131.6,-260.3 164.8,-222.9 			"/>
			<polygon id="XMLID_1377_" class="st3" points="33,-148.5 66.1,-185.9 99.3,-148.5 			"/>
			<polygon id="XMLID_1376_" class="st2" points="33,-372 66.1,-409.4 99.3,-372 			"/>
			<polygon id="XMLID_1375_" class="st2" points="99.5,-446.6 66.4,-409.1 33.2,-446.6 			"/>
			<polygon id="XMLID_1374_" class="st4" points="132.1,-185.8 165.1,-223.2 198.3,-185.8 			"/>
			<polygon id="XMLID_1373_" class="st4" points="164.8,-222.9 197.9,-260.3 231.1,-222.9 			"/>
			<polygon id="XMLID_1372_" class="st2" points="197.3,-260.1 230.3,-297.5 263.5,-260.1 			"/>
			<polygon id="XMLID_1371_" class="st2" points="263.8,-260.2 230.8,-222.8 197.6,-260.2 			"/>
			<polygon id="XMLID_1370_" class="st1" points="296,-297.5 262.9,-260.1 229.7,-297.5 			"/>
			<polygon id="XMLID_1369_" class="st3" points="296,-223.5 262.9,-186.1 229.7,-223.5 			"/>
			<polygon id="XMLID_1368_" class="st1" points="230.8,-222.9 263.9,-260.3 297.1,-222.9 			"/>
			<polygon id="XMLID_1367_" class="st3" points="229.5,-296.9 262.6,-334.3 295.8,-296.9 			"/>
			<polygon id="XMLID_1366_" class="st4" points="99.3,-148.5 132.4,-185.9 165.6,-148.5 			"/>
			<polygon id="XMLID_1365_" class="st1" points="130.7,-334.7 163.8,-372.1 197,-334.7 			"/>
			<polygon id="XMLID_1364_" class="st1" points="98.1,-371.7 131.2,-409.1 164.4,-371.7 			"/>
			<polygon id="XMLID_1363_" class="st1" points="163.5,-297.2 196.6,-334.6 229.8,-297.2 			"/>
			<polygon id="XMLID_1362_" class="st3" points="164.1,-372 197.2,-409.4 230.4,-372 			"/>
			<polygon id="XMLID_1361_" class="st3" points="196.9,-334.5 230,-371.9 263.2,-334.5 			"/>
			<polygon id="XMLID_1360_" class="st1" points="198,-111.2 164.8,-148.6 131.3,-111.2 			"/>
			<polygon id="XMLID_1359_" class="st1" points="264.8,-185.7 231.5,-223.2 198.1,-185.7 			"/>
			<polygon id="XMLID_1358_" class="st1" points="231.2,-148.3 197.9,-185.8 164.5,-148.3 			"/>
			<polygon id="XMLID_1357_" class="st1" points="131.2,-185.8 164.5,-148.4 198,-185.8 			"/>
			<polygon id="XMLID_1356_" class="st1" points="98.3,-148.8 131.6,-111.4 165,-148.8 			"/>
			<polygon id="XMLID_1355_" class="st1" points="165.1,-223.3 198.4,-185.9 231.8,-223.3 			"/>
			<polygon id="XMLID_1354_" class="st3" points="163.6,-148.6 196.9,-111.2 230.4,-148.6 			"/>
			<polygon id="XMLID_1353_" class="st3" points="197.5,-186.1 230.8,-148.7 264.2,-186.1 			"/>
			<polygon id="XMLID_1352_" class="st3" points="99.1,-446.6 131.8,-409.1 164.6,-446.6 			"/>
			<polygon id="XMLID_1351_" class="st1" points="131.4,-110.9 98.4,-73.5 65.2,-110.9 			"/>
			<polygon id="XMLID_1350_" class="st2" points="31.9,-73.5 64.9,-110.9 98.1,-73.5 			"/>
			<polygon id="XMLID_1349_" class="st2" points="163.4,-73.5 196.5,-110.9 229.7,-73.5 			"/>
			<polygon id="XMLID_1348_" class="st2" points="196.8,-111 163.8,-73.5 130.6,-111 			"/>
			<polygon id="XMLID_1347_" class="st3" points="98.4,-73.5 131.4,-110.9 164.6,-73.5 			"/>
		</g>
		<g>
			<polygon class="st1" points="850.6,-632.4 784.7,-706.8 719.1,-632.5 718.8,-632.5 784.8,-558.1 850.4,-632.4 			"/>
			<polygon class="st3" points="831.2,-632.4 784.7,-684.8 738.5,-632.5 738.3,-632.5 784.8,-580.1 831,-632.4 			"/>
			<polygon class="st1" points="818.7,-632.4 784.7,-670.8 750.9,-632.5 750.7,-632.5 784.8,-594.1 818.6,-632.4 			"/>
			<polygon id="XMLID_1346_" class="st4" points="783.6,-706.6 816.6,-744 849.8,-706.6 			"/>
			<polygon id="XMLID_1345_" class="st2" points="784.3,-706.7 751.3,-669.3 718.1,-706.7 			"/>
			<polygon id="XMLID_1344_" class="st2" points="751.6,-669.6 718.6,-632.2 685.4,-669.6 			"/>
			<polygon id="XMLID_1343_" class="st2" points="850.1,-706.7 817,-669.3 783.8,-706.7 			"/>
			<polygon id="XMLID_1342_" class="st3" points="817.1,-744.1 784,-706.6 750.8,-744.1 			"/>
			<polygon id="XMLID_1341_" class="st2" points="817.1,-520.6 784,-483.1 750.8,-520.6 			"/>
			<polygon id="XMLID_1340_" class="st4" points="785.2,-558 752.2,-520.5 719,-558 			"/>
			<polygon id="XMLID_1339_" class="st4" points="751.7,-595.1 718.7,-557.6 685.5,-595.1 			"/>
			<polygon id="XMLID_1338_" class="st4" points="718.7,-632.4 685.7,-595 652.5,-632.4 			"/>
			<polygon id="XMLID_1337_" class="st4" points="718.3,-706.7 685.3,-669.3 652.1,-706.7 			"/>
			<polygon id="XMLID_1336_" class="st4" points="685.6,-669.6 652.6,-632.2 619.4,-669.6 			"/>
			<polygon id="XMLID_1335_" class="st4" points="751.1,-744.1 718,-706.6 684.9,-744.1 			"/>
			<polygon id="XMLID_1334_" class="st3" points="784.8,-781.5 751.8,-744.1 718.6,-781.5 			"/>
			<polygon id="XMLID_1333_" class="st3" points="850.6,-781.5 817.6,-744.1 784.4,-781.5 			"/>
			<polygon id="XMLID_1332_" class="st3" points="784.5,-483.2 817.5,-520.6 850.7,-483.2 			"/>
			<polygon id="XMLID_1331_" class="st3" points="718.5,-483.2 751.5,-520.6 784.7,-483.2 			"/>
			<polygon id="XMLID_1330_" class="st4" points="851.2,-557.9 818.2,-520.4 785,-557.9 			"/>
			<polygon id="XMLID_1329_" class="st1" points="718.8,-781.2 751.8,-818.7 785,-781.2 			"/>
			<polygon id="XMLID_1328_" class="st2" points="784.6,-557.9 817.7,-595.3 850.9,-557.9 			"/>
			<polygon id="XMLID_1327_" class="st2" points="685.4,-595 718.4,-632.4 751.6,-595 			"/>
			<polygon id="XMLID_1326_" class="st2" points="718.9,-557.9 751.9,-595.3 785.1,-557.9 			"/>
			<polygon id="XMLID_1325_" class="st3" points="751.9,-520.5 784.9,-558 818.1,-520.5 			"/>
			<polygon id="XMLID_1324_" class="st2" points="751.9,-744 784.9,-781.5 818.1,-744 			"/>
			<polygon id="XMLID_1323_" class="st2" points="818.3,-818.7 785.3,-781.2 752.1,-818.7 			"/>
			<polygon id="XMLID_1322_" class="st4" points="619.4,-595 652.4,-632.4 685.6,-595 			"/>
			<polygon id="XMLID_1321_" class="st4" points="652.9,-557.9 685.9,-595.3 719.1,-557.9 			"/>
			<polygon id="XMLID_1320_" class="st4" points="685.9,-520.5 718.9,-558 752.1,-520.5 			"/>
			<polygon id="XMLID_1319_" class="st4" points="684.9,-669.5 718,-706.9 751.2,-669.5 			"/>
			<polygon id="XMLID_1318_" class="st4" points="717.7,-706.6 750.7,-744 783.9,-706.6 			"/>
			<polygon id="XMLID_1317_" class="st2" points="687,-818.7 653.9,-781.2 620.8,-818.7 			"/>
			<polygon id="XMLID_1316_" class="st2" points="653.6,-781.2 686.6,-818.6 719.8,-781.2 			"/>
			<polygon id="XMLID_1315_" class="st4" points="652.2,-632.1 685.2,-669.6 718.4,-632.1 			"/>
			<polygon id="XMLID_1314_" class="st3" points="751.8,-818.7 718.8,-781.2 685.6,-818.7 			"/>
			<polygon id="XMLID_1313_" class="st1" points="653.1,-483.2 686.1,-520.7 719.3,-483.2 			"/>
			<polygon id="XMLID_1312_" class="st1" points="586.8,-557.8 619.8,-595.2 653,-557.8 			"/>
			<polygon id="XMLID_1311_" class="st1" points="620.3,-520.4 653.3,-557.8 686.5,-520.4 			"/>
			<polygon id="XMLID_1310_" class="st1" points="719.5,-557.9 686.4,-520.4 653.2,-557.9 			"/>
			<polygon id="XMLID_1309_" class="st1" points="752.1,-520.9 719,-483.4 685.8,-520.9 			"/>
			<polygon id="XMLID_1308_" class="st1" points="685.8,-595.4 652.7,-557.9 619.5,-595.4 			"/>
			<polygon id="XMLID_1307_" class="st2" points="654.3,-632.6 621.2,-595.1 588,-632.6 			"/>
			<polygon id="XMLID_1306_" class="st2" points="587.7,-632.5 620.8,-669.9 653.9,-632.5 			"/>
			<polygon id="XMLID_1305_" class="st1" points="555.6,-595.1 588.6,-632.6 621.8,-595.1 			"/>
			<polygon id="XMLID_1304_" class="st3" points="555.6,-669.1 588.6,-706.6 621.8,-669.1 			"/>
			<polygon id="XMLID_1303_" class="st1" points="620.7,-669.8 587.7,-632.4 554.5,-669.8 			"/>
			<polygon id="XMLID_1302_" class="st3" points="622,-595.8 589,-558.4 555.8,-595.8 			"/>
			<polygon id="XMLID_1301_" class="st3" points="687.4,-520.7 654.4,-483.2 621.2,-520.7 			"/>
			<polygon id="XMLID_1300_" class="st3" points="654.6,-558.2 621.6,-520.7 588.4,-558.2 			"/>
			<polygon id="XMLID_1299_" class="st3" points="687.9,-744.1 654.6,-781.5 621.2,-744.1 			"/>
			<polygon id="XMLID_1298_" class="st3" points="654.1,-706.6 620.8,-744 587.3,-706.6 			"/>
			<polygon id="XMLID_1297_" class="st1" points="685.4,-669.4 652.5,-706.8 619.5,-669.4 			"/>
			<polygon id="XMLID_1296_" class="st1" points="751.5,-744 718.9,-781.4 686.1,-744 			"/>
			<polygon id="XMLID_1295_" class="st1" points="718.8,-706.6 686.2,-744 653.5,-706.6 			"/>
			<polygon id="XMLID_1294_" class="st1" points="621,-744 653.6,-706.6 686.3,-744 			"/>
			<polygon id="XMLID_1293_" class="st1" points="586.8,-707 619.7,-669.6 652.8,-707 			"/>
			<polygon id="XMLID_1292_" class="st1" points="653.7,-781.5 686.4,-744.1 719.2,-781.5 			"/>
			<polygon id="XMLID_1291_" class="st1" points="850.3,-483 817.3,-445.6 784.1,-483 			"/>
			<polygon id="XMLID_1290_" class="st1" points="783.7,-483 750.7,-445.6 717.5,-483 			"/>
			<polygon id="XMLID_1289_" class="st2" points="719.4,-483 686.4,-445.6 653.2,-483 			"/>
			<polygon id="XMLID_1288_" class="st2" points="620.8,-445.6 653.8,-483 687,-445.6 			"/>
			<polygon id="XMLID_1287_" class="st2" points="750.7,-445.6 783.8,-483 817,-445.6 			"/>
			<polygon id="XMLID_1286_" class="st3" points="751.1,-445.6 718.4,-483 685.6,-445.6 			"/>
		</g>
		<g>
			<polygon class="st1" points="491.2,-446.4 425.2,-520.8 359.7,-446.5 359.4,-446.5 425.4,-372.1 491,-446.4 			"/>
			<polygon class="st3" points="471.7,-446.4 425.3,-498.8 379.1,-446.5 378.9,-446.5 425.4,-394.1 471.6,-446.4 			"/>
			<polygon class="st1" points="459.3,-446.4 425.3,-484.8 391.4,-446.4 391.3,-446.4 425.4,-408.1 459.2,-446.4 			"/>
			<polygon id="XMLID_1285_" class="st4" points="424.2,-520.6 457.2,-558 490.4,-520.6 			"/>
			<polygon id="XMLID_1284_" class="st4" points="457.7,-483.5 490.7,-520.9 523.9,-483.5 			"/>
			<polygon id="XMLID_1283_" class="st4" points="490.7,-446.1 523.7,-483.6 556.9,-446.1 			"/>
			<polygon id="XMLID_1282_" class="st2" points="424.9,-520.7 391.9,-483.2 358.7,-520.7 			"/>
			<polygon id="XMLID_1281_" class="st2" points="392.2,-483.6 359.1,-446.1 325.9,-483.6 			"/>
			<polygon id="XMLID_1280_" class="st2" points="524.2,-483.6 491.1,-446.1 457.9,-483.6 			"/>
			<polygon id="XMLID_1279_" class="st2" points="490.6,-520.7 457.6,-483.2 424.4,-520.7 			"/>
			<polygon id="XMLID_1278_" class="st3" points="457.7,-558 424.6,-520.6 391.4,-558 			"/>
			<polygon id="XMLID_1277_" class="st2" points="457.7,-334.5 424.6,-297.1 391.4,-334.5 			"/>
			<polygon id="XMLID_1276_" class="st4" points="425.8,-371.9 392.7,-334.5 359.5,-371.9 			"/>
			<polygon id="XMLID_1275_" class="st4" points="392.3,-409 359.2,-371.6 326,-409 			"/>
			<polygon id="XMLID_1274_" class="st4" points="359.3,-446.4 326.2,-408.9 293,-446.4 			"/>
			<polygon id="XMLID_1273_" class="st4" points="358.9,-520.7 325.9,-483.2 292.7,-520.7 			"/>
			<polygon id="XMLID_1272_" class="st4" points="326.2,-483.6 293.1,-446.1 259.9,-483.6 			"/>
			<polygon id="XMLID_1271_" class="st4" points="391.7,-558 358.6,-520.6 325.4,-558 			"/>
			<polygon id="XMLID_1270_" class="st3" points="425.4,-595.5 392.4,-558 359.2,-595.5 			"/>
			<polygon id="XMLID_1269_" class="st3" points="491.2,-595.5 458.2,-558 425,-595.5 			"/>
			<polygon id="XMLID_1268_" class="st3" points="425,-297.2 458.1,-334.6 491.3,-297.2 			"/>
			<polygon id="XMLID_1267_" class="st3" points="359,-297.2 392.1,-334.6 425.3,-297.2 			"/>
			<polygon id="XMLID_1266_" class="st4" points="524.5,-408.9 491.5,-371.5 458.3,-408.9 			"/>
			<polygon id="XMLID_1265_" class="st4" points="491.8,-371.8 458.7,-334.4 425.5,-371.8 			"/>
			<polygon id="XMLID_1264_" class="st4" points="557.3,-446.2 524.2,-408.8 491,-446.2 			"/>
			<polygon id="XMLID_1263_" class="st4" points="589.4,-483.6 556.3,-446.1 523.1,-483.6 			"/>
			<polygon id="XMLID_1262_" class="st4" points="555.9,-520.7 522.8,-483.2 489.6,-520.7 			"/>
			<polygon id="XMLID_1261_" class="st1" points="556.6,-595.3 523.5,-557.9 490.3,-595.3 			"/>
			<polygon id="XMLID_1260_" class="st1" points="359.3,-595.2 392.4,-632.6 425.6,-595.2 			"/>
			<polygon id="XMLID_1259_" class="st1" points="425.9,-595.2 459,-632.6 492.2,-595.2 			"/>
			<polygon id="XMLID_1258_" class="st1" points="622,-520.8 588.9,-483.3 555.7,-520.8 			"/>
			<polygon id="XMLID_1257_" class="st1" points="589.4,-558.2 556.3,-520.7 523.1,-558.2 			"/>
			<polygon id="XMLID_1255_" class="st4" points="522.9,-558 489.8,-520.6 456.6,-558 			"/>
			<polygon id="XMLID_1254_" class="st2" points="490.2,-595.2 523.2,-632.6 556.4,-595.2 			"/>
			<polygon id="XMLID_1251_" class="st2" points="588.9,-632.6 555.8,-595.2 522.6,-632.6 			"/>
			<polygon id="XMLID_1237_" class="st2" points="425.2,-371.8 458.2,-409.3 491.4,-371.8 			"/>
			<polygon id="XMLID_1235_" class="st2" points="458,-408.9 491,-446.4 524.2,-408.9 			"/>
			<polygon id="XMLID_1234_" class="st2" points="326,-408.9 359,-446.4 392.2,-408.9 			"/>
			<polygon id="XMLID_1233_" class="st2" points="359.5,-371.8 392.5,-409.3 425.7,-371.8 			"/>
			<polygon id="XMLID_1232_" class="st3" points="392.5,-334.5 425.5,-371.9 458.7,-334.5 			"/>
			<polygon id="XMLID_1230_" class="st2" points="392.5,-558 425.5,-595.4 458.7,-558 			"/>
			<polygon id="XMLID_1229_" class="st2" points="458.9,-632.6 425.8,-595.2 392.6,-632.6 			"/>
			<polygon id="XMLID_1228_" class="st4" points="491.5,-371.8 524.5,-409.3 557.7,-371.8 			"/>
			<polygon id="XMLID_1227_" class="st4" points="524.2,-408.9 557.3,-446.4 590.5,-408.9 			"/>
			<polygon id="XMLID_1226_" class="st2" points="556.7,-446.1 589.7,-483.6 622.9,-446.1 			"/>
			<polygon id="XMLID_1225_" class="st2" points="623.3,-446.2 590.2,-408.8 557,-446.2 			"/>
			<polygon id="XMLID_1223_" class="st1" points="655.4,-483.6 622.3,-446.1 589.1,-483.6 			"/>
			<polygon id="XMLID_1217_" class="st3" points="655.4,-409.6 622.3,-372.1 589.1,-409.6 			"/>
			<polygon id="XMLID_1216_" class="st1" points="590.2,-408.9 623.3,-446.4 656.5,-408.9 			"/>
			<polygon id="XMLID_1215_" class="st3" points="588.9,-482.9 622,-520.4 655.2,-482.9 			"/>
			<polygon id="XMLID_1214_" class="st4" points="458.8,-334.5 491.8,-371.9 525,-334.5 			"/>
			<polygon id="XMLID_1213_" class="st4" points="260,-408.9 293,-446.4 326.2,-408.9 			"/>
			<polygon id="XMLID_1212_" class="st4" points="293.5,-371.8 326.5,-409.3 359.7,-371.8 			"/>
			<polygon id="XMLID_1211_" class="st4" points="326.5,-334.5 359.5,-371.9 392.7,-334.5 			"/>
			<polygon id="XMLID_1210_" class="st4" points="325.5,-483.4 358.5,-520.9 391.7,-483.4 			"/>
			<polygon id="XMLID_1209_" class="st4" points="358.2,-520.5 391.3,-558 424.5,-520.5 			"/>
			<polygon id="XMLID_1200_" class="st2" points="327.6,-632.6 294.5,-595.2 261.3,-632.6 			"/>
			<polygon id="XMLID_1199_" class="st2" points="294.1,-595.1 327.2,-632.6 360.4,-595.1 			"/>
			<polygon id="XMLID_1197_" class="st4" points="292.8,-446.1 325.8,-483.5 359,-446.1 			"/>
			<polygon id="XMLID_1196_" class="st1" points="490.2,-520.7 523.2,-558.1 556.4,-520.7 			"/>
			<polygon id="XMLID_1195_" class="st1" points="457.6,-557.7 490.6,-595.1 523.8,-557.7 			"/>
			<polygon id="XMLID_1188_" class="st3" points="392.4,-632.6 359.4,-595.2 326.2,-632.6 			"/>
			<polygon id="XMLID_1187_" class="st1" points="523,-483.2 556,-520.6 589.2,-483.2 			"/>
			<polygon id="XMLID_1186_" class="st3" points="523.6,-558 556.6,-595.5 589.8,-558 			"/>
			<polygon id="XMLID_1185_" class="st3" points="556.4,-520.5 589.4,-558 622.6,-520.5 			"/>
			<polygon id="XMLID_1184_" class="st1" points="293.6,-297.2 326.7,-334.6 359.9,-297.2 			"/>
			<polygon id="XMLID_1183_" class="st1" points="227.3,-371.8 260.4,-409.2 293.6,-371.8 			"/>
			<polygon id="XMLID_1182_" class="st1" points="260.8,-334.4 293.9,-371.8 327.1,-334.4 			"/>
			<polygon id="XMLID_1181_" class="st1" points="360,-371.8 327,-334.4 293.8,-371.8 			"/>
			<polygon id="XMLID_1168_" class="st1" points="392.6,-334.8 359.6,-297.4 326.4,-334.8 			"/>
			<polygon id="XMLID_1158_" class="st1" points="326.3,-409.3 293.3,-371.9 260.1,-409.3 			"/>
			<polygon id="XMLID_1157_" class="st1" points="557.5,-297.2 524.2,-334.6 490.7,-297.2 			"/>
			<polygon id="XMLID_1156_" class="st1" points="624.2,-371.8 591,-409.2 557.5,-371.8 			"/>
			<polygon id="XMLID_1154_" class="st1" points="590.6,-334.4 557.3,-371.8 523.9,-334.4 			"/>
			<polygon id="XMLID_1153_" class="st1" points="490.7,-371.8 523.9,-334.4 557.4,-371.8 			"/>
			<polygon id="XMLID_1152_" class="st1" points="457.7,-334.8 491,-297.4 524.4,-334.8 			"/>
			<polygon id="XMLID_1151_" class="st1" points="524.5,-409.3 557.8,-371.9 591.2,-409.3 			"/>
			<polygon id="XMLID_1150_" class="st3" points="523.1,-334.6 556.3,-297.2 589.8,-334.6 			"/>
			<polygon id="XMLID_1149_" class="st3" points="556.9,-372.1 590.2,-334.7 623.6,-372.1 			"/>
			<polygon id="XMLID_1148_" class="st2" points="294.9,-446.5 261.8,-409.1 228.6,-446.5 			"/>
			<polygon id="XMLID_1147_" class="st2" points="228.3,-446.4 261.3,-483.9 294.5,-446.4 			"/>
			<polygon id="XMLID_1146_" class="st1" points="196.2,-409.1 229.2,-446.5 262.4,-409.1 			"/>
			<polygon id="XMLID_1145_" class="st3" points="196.2,-483.1 229.2,-520.5 262.4,-483.1 			"/>
			<polygon id="XMLID_1144_" class="st1" points="261.3,-483.8 228.3,-446.3 195.1,-483.8 			"/>
			<polygon id="XMLID_1143_" class="st3" points="262.6,-409.8 229.6,-372.3 196.4,-409.8 			"/>
			<polygon id="XMLID_1142_" class="st3" points="328,-334.6 294.9,-297.2 261.7,-334.6 			"/>
			<polygon id="XMLID_1141_" class="st3" points="295.2,-372.1 262.1,-334.7 228.9,-372.1 			"/>
			<polygon id="XMLID_1140_" class="st3" points="328.5,-558 295.2,-595.5 261.8,-558 			"/>
			<polygon id="XMLID_1139_" class="st3" points="294.6,-520.5 261.4,-558 227.9,-520.5 			"/>
			<polygon id="XMLID_1138_" class="st1" points="326,-483.4 293.1,-520.8 260,-483.4 			"/>
			<polygon id="XMLID_1137_" class="st1" points="392.1,-557.9 359.5,-595.4 326.7,-557.9 			"/>
			<polygon id="XMLID_1136_" class="st3" points="458.6,-632.6 491.2,-595.2 524,-632.6 			"/>
			<polygon id="XMLID_1135_" class="st1" points="359.4,-520.5 326.8,-558 294.1,-520.5 			"/>
			<polygon id="XMLID_1134_" class="st1" points="261.6,-558 294.1,-520.6 326.9,-558 			"/>
			<polygon id="XMLID_1133_" class="st1" points="227.4,-521 260.3,-483.6 293.4,-521 			"/>
			<polygon id="XMLID_1132_" class="st1" points="294.3,-595.5 326.9,-558.1 359.7,-595.5 			"/>
			<polygon id="XMLID_1131_" class="st1" points="490.9,-297 457.8,-259.5 424.6,-297 			"/>
			<polygon id="XMLID_1130_" class="st1" points="424.3,-297 391.2,-259.5 358,-297 			"/>
			<polygon id="XMLID_1129_" class="st2" points="360,-297 327,-259.5 293.8,-297 			"/>
			<polygon id="XMLID_1128_" class="st2" points="261.3,-259.5 294.4,-297 327.6,-259.5 			"/>
			<polygon id="XMLID_1127_" class="st2" points="391.3,-259.5 424.4,-297 457.6,-259.5 			"/>
			<polygon id="XMLID_1126_" class="st2" points="522.8,-259.5 555.9,-297 589.1,-259.5 			"/>
			<polygon id="XMLID_1125_" class="st2" points="556.3,-297 523.2,-259.6 490,-297 			"/>
			<polygon id="XMLID_1124_" class="st3" points="457.8,-259.5 490.8,-297 524,-259.5 			"/>
			<polygon id="XMLID_1123_" class="st3" points="391.6,-259.5 359,-297 326.2,-259.5 			"/>
		</g>
		<g>
			<polygon class="st1" points="131.8,-632.4 65.8,-706.8 0.2,-632.5 0,-632.5 66,-558.1 131.6,-632.4 			"/>
			<polygon class="st3" points="112.3,-632.4 65.8,-684.8 19.7,-632.5 19.5,-632.5 66,-580.1 112.1,-632.4 			"/>
			<polygon class="st1" points="99.9,-632.4 65.9,-670.8 32,-632.5 31.9,-632.5 65.9,-594.1 99.8,-632.4 			"/>
			<polygon id="XMLID_1122_" class="st4" points="64.8,-706.6 97.8,-744 131,-706.6 			"/>
			<polygon id="XMLID_1121_" class="st4" points="98.3,-669.5 131.3,-707 164.5,-669.5 			"/>
			<polygon id="XMLID_1120_" class="st4" points="131.3,-632.2 164.3,-669.6 197.5,-632.2 			"/>
			<polygon id="XMLID_1119_" class="st2" points="164.7,-669.6 131.7,-632.2 98.5,-669.6 			"/>
			<polygon id="XMLID_1118_" class="st2" points="131.2,-706.7 98.2,-669.3 65,-706.7 			"/>
			<polygon id="XMLID_1117_" class="st3" points="98.2,-744.1 65.2,-706.6 32,-744.1 			"/>
			<polygon id="XMLID_1116_" class="st2" points="98.2,-520.6 65.2,-483.1 32,-520.6 			"/>
			<polygon id="XMLID_1115_" class="st4" points="66.4,-558 33.3,-520.5 0.1,-558 			"/>
			<polygon id="XMLID_1114_" class="st3" points="131.8,-781.5 98.7,-744.1 65.5,-781.5 			"/>
			<polygon id="XMLID_1113_" class="st3" points="65.6,-483.2 98.7,-520.6 131.9,-483.2 			"/>
			<polygon id="XMLID_1112_" class="st4" points="165.1,-594.9 132.1,-557.5 98.9,-594.9 			"/>
			<polygon id="XMLID_1111_" class="st4" points="132.3,-557.9 99.3,-520.4 66.1,-557.9 			"/>
			<polygon id="XMLID_1110_" class="st4" points="197.8,-632.3 164.8,-594.9 131.6,-632.3 			"/>
			<polygon id="XMLID_1109_" class="st4" points="230,-669.6 196.9,-632.2 163.7,-669.6 			"/>
			<polygon id="XMLID_1108_" class="st4" points="196.4,-706.7 163.4,-669.3 130.2,-706.7 			"/>
			<polygon id="XMLID_1107_" class="st1" points="197.1,-781.4 164.1,-743.9 130.9,-781.4 			"/>
			<polygon id="XMLID_1106_" class="st1" points="66.5,-781.2 99.5,-818.7 132.7,-781.2 			"/>
			<polygon id="XMLID_1105_" class="st1" points="262.5,-706.8 229.5,-669.4 196.3,-706.8 			"/>
			<polygon id="XMLID_1104_" class="st1" points="229.9,-744.2 196.9,-706.8 163.7,-744.2 			"/>
			<polygon id="XMLID_1103_" class="st4" points="163.5,-744.1 130.4,-706.6 97.2,-744.1 			"/>
			<polygon id="XMLID_1102_" class="st2" points="130.8,-781.2 163.8,-818.7 197,-781.2 			"/>
			<polygon id="XMLID_1101_" class="st2" points="229.5,-818.7 196.4,-781.2 163.2,-818.7 			"/>
			<polygon id="XMLID_1100_" class="st2" points="65.8,-557.9 98.8,-595.3 132,-557.9 			"/>
			<polygon id="XMLID_1099_" class="st2" points="98.5,-595 131.6,-632.4 164.8,-595 			"/>
			<polygon id="XMLID_1098_" class="st3" points="33,-520.5 66.1,-558 99.3,-520.5 			"/>
			<polygon id="XMLID_1097_" class="st2" points="33,-744 66.1,-781.5 99.3,-744 			"/>
			<polygon id="XMLID_1096_" class="st2" points="99.5,-818.7 66.4,-781.2 33.2,-818.7 			"/>
			<polygon id="XMLID_1095_" class="st4" points="132.1,-557.9 165.1,-595.3 198.3,-557.9 			"/>
			<polygon id="XMLID_1094_" class="st4" points="164.8,-595 197.9,-632.4 231.1,-595 			"/>
			<polygon id="XMLID_1093_" class="st2" points="197.3,-632.2 230.3,-669.6 263.5,-632.2 			"/>
			<polygon id="XMLID_1092_" class="st2" points="263.8,-632.3 230.8,-594.9 197.6,-632.3 			"/>
			<polygon id="XMLID_1091_" class="st1" points="296,-669.6 262.9,-632.2 229.7,-669.6 			"/>
			<polygon id="XMLID_1090_" class="st3" points="296,-595.6 262.9,-558.2 229.7,-595.6 			"/>
			<polygon id="XMLID_1089_" class="st1" points="230.8,-595 263.9,-632.4 297.1,-595 			"/>
			<polygon id="XMLID_1088_" class="st3" points="229.5,-669 262.6,-706.4 295.8,-669 			"/>
			<polygon id="XMLID_1087_" class="st4" points="99.3,-520.5 132.4,-558 165.6,-520.5 			"/>
			<polygon id="XMLID_1086_" class="st1" points="130.7,-706.7 163.8,-744.2 197,-706.7 			"/>
			<polygon id="XMLID_1085_" class="st1" points="98.1,-743.7 131.2,-781.2 164.4,-743.7 			"/>
			<polygon id="XMLID_1084_" class="st1" points="163.5,-669.2 196.6,-706.7 229.8,-669.2 			"/>
			<polygon id="XMLID_1083_" class="st3" points="164.1,-744.1 197.2,-781.5 230.4,-744.1 			"/>
			<polygon id="XMLID_1082_" class="st3" points="196.9,-706.6 230,-744 263.2,-706.6 			"/>
			<polygon id="XMLID_1081_" class="st1" points="198,-483.2 164.8,-520.7 131.3,-483.2 			"/>
			<polygon id="XMLID_1080_" class="st1" points="264.8,-557.8 231.5,-595.2 198.1,-557.8 			"/>
			<polygon id="XMLID_1079_" class="st1" points="231.2,-520.4 197.9,-557.8 164.5,-520.4 			"/>
			<polygon id="XMLID_1078_" class="st1" points="131.2,-557.9 164.5,-520.4 198,-557.9 			"/>
			<polygon id="XMLID_1077_" class="st1" points="98.3,-520.9 131.6,-483.4 165,-520.9 			"/>
			<polygon id="XMLID_1076_" class="st1" points="165.1,-595.4 198.4,-557.9 231.8,-595.4 			"/>
			<polygon id="XMLID_1075_" class="st3" points="163.6,-520.7 196.9,-483.2 230.4,-520.7 			"/>
			<polygon id="XMLID_1074_" class="st3" points="197.5,-558.2 230.8,-520.7 264.2,-558.2 			"/>
			<polygon id="XMLID_1073_" class="st3" points="99.1,-818.7 131.8,-781.2 164.6,-818.7 			"/>
			<polygon id="XMLID_1072_" class="st1" points="131.4,-483 98.4,-445.6 65.2,-483 			"/>
			<polygon id="XMLID_1071_" class="st2" points="31.9,-445.6 64.9,-483 98.1,-445.6 			"/>
			<polygon id="XMLID_1070_" class="st2" points="163.4,-445.6 196.5,-483 229.7,-445.6 			"/>
			<polygon id="XMLID_1069_" class="st2" points="196.8,-483.1 163.8,-445.6 130.6,-483.1 			"/>
			<polygon id="XMLID_1068_" class="st3" points="98.4,-445.6 131.4,-483 164.6,-445.6 			"/>
		</g>
		<g>
			<polygon id="XMLID_1067_" class="st1" points="850.3,-855.1 817.3,-817.7 784.1,-855.1 			"/>
			<polygon id="XMLID_1066_" class="st1" points="783.7,-855.1 750.7,-817.7 717.5,-855.1 			"/>
			<polygon id="XMLID_1065_" class="st2" points="719.4,-855.1 686.4,-817.7 653.2,-855.1 			"/>
			<polygon id="XMLID_1064_" class="st2" points="620.8,-817.7 653.8,-855.1 687,-817.7 			"/>
			<polygon id="XMLID_1063_" class="st2" points="750.7,-817.7 783.8,-855.1 817,-817.7 			"/>
			<polygon id="XMLID_1062_" class="st3" points="751.1,-817.7 718.4,-855.1 685.6,-817.7 			"/>
		</g>
		<g>
			<polygon class="st1" points="491.2,-818.5 425.2,-892.8 359.7,-818.5 359.4,-818.5 425.4,-744.2 491,-818.5 			"/>
			<polygon class="st3" points="471.7,-818.5 425.3,-870.9 379.1,-818.5 378.9,-818.5 425.4,-766.1 471.6,-818.5 			"/>
			<polygon class="st1" points="459.3,-818.5 425.3,-856.9 391.4,-818.5 391.3,-818.5 425.4,-780.1 459.2,-818.5 			"/>
			<polygon id="XMLID_1061_" class="st2" points="457.7,-706.6 424.6,-669.2 391.4,-706.6 			"/>
			<polygon id="XMLID_1060_" class="st4" points="425.8,-744 392.7,-706.6 359.5,-744 			"/>
			<polygon id="XMLID_1059_" class="st4" points="392.3,-781.1 359.2,-743.7 326,-781.1 			"/>
			<polygon id="XMLID_1058_" class="st4" points="359.3,-818.4 326.2,-781 293,-818.4 			"/>
			<polygon id="XMLID_1057_" class="st3" points="425,-669.2 458.1,-706.7 491.3,-669.2 			"/>
			<polygon id="XMLID_1056_" class="st3" points="359,-669.2 392.1,-706.7 425.3,-669.2 			"/>
			<polygon id="XMLID_1055_" class="st4" points="524.5,-781 491.5,-743.5 458.3,-781 			"/>
			<polygon id="XMLID_1054_" class="st4" points="491.8,-743.9 458.7,-706.5 425.5,-743.9 			"/>
			<polygon id="XMLID_1053_" class="st4" points="557.3,-818.3 524.2,-780.9 491,-818.3 			"/>
			<polygon id="XMLID_1049_" class="st2" points="425.2,-743.9 458.2,-781.3 491.4,-743.9 			"/>
			<polygon id="XMLID_1048_" class="st2" points="458,-781 491,-818.4 524.2,-781 			"/>
			<polygon id="XMLID_1042_" class="st2" points="326,-781 359,-818.4 392.2,-781 			"/>
			<polygon id="XMLID_1041_" class="st2" points="359.5,-743.9 392.5,-781.3 425.7,-743.9 			"/>
			<polygon id="XMLID_1040_" class="st3" points="392.5,-706.6 425.5,-744 458.7,-706.6 			"/>
			<polygon id="XMLID_1039_" class="st4" points="491.5,-743.9 524.5,-781.3 557.7,-743.9 			"/>
			<polygon id="XMLID_1038_" class="st4" points="524.2,-781 557.3,-818.4 590.5,-781 			"/>
			<polygon id="XMLID_1037_" class="st2" points="623.3,-818.3 590.2,-780.9 557,-818.3 			"/>
			<polygon id="XMLID_1034_" class="st3" points="655.4,-781.7 622.3,-744.2 589.1,-781.7 			"/>
			<polygon id="XMLID_1027_" class="st1" points="590.2,-781 623.3,-818.4 656.5,-781 			"/>
			<polygon id="XMLID_1018_" class="st4" points="458.8,-706.6 491.8,-744 525,-706.6 			"/>
			<polygon id="XMLID_1017_" class="st4" points="260,-781 293,-818.4 326.2,-781 			"/>
			<polygon id="XMLID_1004_" class="st4" points="293.5,-743.9 326.5,-781.3 359.7,-743.9 			"/>
			<polygon id="XMLID_1003_" class="st4" points="326.5,-706.6 359.5,-744 392.7,-706.6 			"/>
			<polygon id="XMLID_1002_" class="st1" points="293.6,-669.3 326.7,-706.7 359.9,-669.3 			"/>
			<polygon id="XMLID_1001_" class="st1" points="227.3,-743.9 260.4,-781.3 293.6,-743.9 			"/>
			<polygon id="XMLID_1000_" class="st1" points="260.8,-706.5 293.9,-743.9 327.1,-706.5 			"/>
			<polygon id="XMLID_999_" class="st1" points="360,-743.9 327,-706.5 293.8,-743.9 			"/>
			<polygon id="XMLID_998_" class="st1" points="392.6,-706.9 359.6,-669.5 326.4,-706.9 			"/>
			<polygon id="XMLID_997_" class="st1" points="326.3,-781.4 293.3,-744 260.1,-781.4 			"/>
			<polygon id="XMLID_994_" class="st1" points="557.5,-669.3 524.2,-706.7 490.7,-669.3 			"/>
			<polygon id="XMLID_990_" class="st1" points="624.2,-743.9 591,-781.3 557.5,-743.9 			"/>
			<polygon id="XMLID_989_" class="st1" points="590.6,-706.5 557.3,-743.9 523.9,-706.5 			"/>
			<polygon id="XMLID_988_" class="st1" points="490.7,-743.9 523.9,-706.5 557.4,-743.9 			"/>
			<polygon id="XMLID_987_" class="st1" points="457.7,-706.9 491,-669.5 524.4,-706.9 			"/>
			<polygon id="XMLID_986_" class="st1" points="524.5,-781.4 557.8,-744 591.2,-781.4 			"/>
			<polygon id="XMLID_985_" class="st3" points="523.1,-706.7 556.3,-669.3 589.8,-706.7 			"/>
			<polygon id="XMLID_976_" class="st3" points="556.9,-744.2 590.2,-706.8 623.6,-744.2 			"/>
			<polygon id="XMLID_975_" class="st2" points="294.9,-818.6 261.8,-781.2 228.6,-818.6 			"/>
			<polygon id="XMLID_974_" class="st1" points="196.2,-781.2 229.2,-818.6 262.4,-781.2 			"/>
			<polygon id="XMLID_973_" class="st3" points="262.6,-781.8 229.6,-744.4 196.4,-781.8 			"/>
			<polygon id="XMLID_972_" class="st3" points="328,-706.7 294.9,-669.3 261.7,-706.7 			"/>
			<polygon id="XMLID_971_" class="st3" points="295.2,-744.2 262.1,-706.8 228.9,-744.2 			"/>
			<polygon id="XMLID_970_" class="st1" points="490.9,-669 457.8,-631.6 424.6,-669 			"/>
			<polygon id="XMLID_969_" class="st1" points="424.3,-669 391.2,-631.6 358,-669 			"/>
			<polygon id="XMLID_968_" class="st2" points="360,-669 327,-631.6 293.8,-669 			"/>
			<polygon id="XMLID_967_" class="st2" points="261.3,-631.6 294.4,-669 327.6,-631.6 			"/>
			<polygon id="XMLID_966_" class="st2" points="391.3,-631.6 424.4,-669 457.6,-631.6 			"/>
			<polygon id="XMLID_965_" class="st2" points="522.8,-631.6 555.9,-669 589.1,-631.6 			"/>
			<polygon id="XMLID_963_" class="st2" points="556.3,-669.1 523.2,-631.7 490,-669.1 			"/>
			<polygon id="XMLID_962_" class="st3" points="457.8,-631.6 490.8,-669 524,-631.6 			"/>
			<polygon id="XMLID_961_" class="st3" points="391.6,-631.6 359,-669 326.2,-631.6 			"/>
		</g>
		<g>
			<polygon id="XMLID_960_" class="st1" points="131.4,-855.1 98.4,-817.7 65.2,-855.1 			"/>
			<polygon id="XMLID_958_" class="st2" points="31.9,-817.7 64.9,-855.1 98.1,-817.7 			"/>
			<polygon id="XMLID_957_" class="st2" points="163.4,-817.7 196.5,-855.1 229.7,-817.7 			"/>
			<polygon id="XMLID_956_" class="st2" points="196.8,-855.1 163.8,-817.7 130.6,-855.1 			"/>
			<polygon id="XMLID_951_" class="st3" points="98.4,-817.7 131.4,-855.1 164.6,-817.7 			"/>
		</g>
	</g>
</pattern>
<rect class="st5" width="1400" height="980"/>
</svg>
